<svg version="1.0" xmlns="http://www.w3.org/2000/svg"
     width="511pt" height="511pt" viewBox="0 0 1024 1024"
     preserveAspectRatio="xMidYMid meet">
    <g transform="translate(0.000000,1024.000000) scale(0.100000,-0.100000)"
       fill="#ffff" stroke="none">
        <path d="M1500 8746 c-56 -28 -90 -83 -90 -146 0 -65 28 -188 141 -620 55
                  -212 113 -413 129 -447 37 -80 108 -155 177 -189 67 -33 160 -36 245 -9 l57
                  18 63 -48 c35 -27 65 -50 67 -52 2 -1 -25 -33 -60 -70 -306 -326 -523 -647
                  -643 -955 -32 -81 -33 -83 -79 -99 -69 -25 -134 -70 -205 -141 -141 -143 -234
                  -339 -293 -618 -29 -137 -32 -434 -5 -577 52 -284 154 -494 317 -653 64 -62
                  68 -69 88 -147 30 -116 73 -235 140 -382 218 -483 474 -782 916 -1073 207
                  -136 408 -230 705 -329 382 -127 749 -204 1225 -256 232 -25 928 -25 1175 0
                  873 89 1550 324 2082 724 367 276 654 640 799 1012 l36 95 59 16 c275 75 510
                  395 593 805 74 368 34 808 -98 1091 -111 236 -284 391 -494 443 -69 17 -72 19
                  -86 57 -126 352 -298 658 -503 895 l-68 78 61 51 c33 27 63 50 66 50 4 0 36
                  -12 72 -26 120 -48 252 -32 363 44 91 62 113 102 308 552 195 451 288 675 295
                  713 15 80 -45 180 -117 196 -63 14 -112 -2 -221 -74 -125 -84 -841 -623 -911
                  -686 -126 -115 -138 -268 -35 -458 44 -82 46 -70 -25 -148 l-29 -32 -76 69
                  c-513 462 -1307 782 -2145 865 -773 76 -1518 -44 -2214 -359 -230 -103 -483
                  -256 -696 -420 l-99 -76 -61 60 -61 60 19 32 c76 132 96 212 78 308 -21 117
                  -36 136 -341 438 -455 450 -500 480 -621 418z m315 -447 c66 -62 181 -172 257
                  -247 159 -158 171 -181 144 -275 -31 -108 -177 -230 -246 -206 -51 18 -86 105
                  -215 539 -69 229 -85 300 -68 300 5 0 63 -50 128 -111z m6915 77 c13 -17 26
                  14 -208 -473 -157 -325 -197 -395 -241 -418 -40 -20 -117 -19 -166 4 -86 39
                  -167 159 -169 247 -1 69 16 90 132 176 132 97 462 354 542 422 68 57 89 66
                  110 42z m-3210 -361 c993 -119 1764 -510 2286 -1160 155 -194 371 -565 406
                  -697 l12 -46 -54 -59 c-142 -155 -263 -429 -309 -703 -27 -155 -38 -450 -23
                  -606 33 -338 159 -682 310 -845 63 -68 64 -70 58 -112 -8 -50 -93 -225 -156
                  -318 -265 -395 -664 -716 -1150 -925 -619 -266 -1350 -377 -2185 -334 -1044
                  55 -1794 285 -2330 717 -539 434 -795 961 -846 1743 -34 529 74 1121 287 1579
                  207 444 592 877 1034 1164 269 174 673 359 1010 460 250 76 554 134 820 157
                  159 13 671 4 830 -15z m-3843 -427 c-3 -8 -6 -5 -6 6 -1 11 2 17 5 13 3 -3 4
                  -12 1 -19z m77 -134 c3 -8 2 -12 -4 -9 -6 3 -10 10 -10 16 0 14 7 11 14 -7z
                  m6788 -1589 c77 -31 160 -94 195 -147 27 -39 27 -41 9 -52 -74 -43 -126 -124
                  -177 -273 -90 -268 -93 -574 -8 -828 42 -126 86 -205 132 -234 20 -13 37 -32
                  37 -41 0 -21 -49 -98 -96 -150 -84 -93 -188 -120 -268 -71 -110 68 -204 282
                  -257 587 -32 182 -32 475 -1 648 36 196 121 415 199 513 61 76 130 91 235 48z
                  m-7359 -70 c-3 -9 -8 -14 -10 -11 -3 3 -2 9 2 15 9 16 15 13 8 -4z m227 -151
                  c-71 -275 -117 -749 -93 -956 5 -43 6 -78 1 -78 -9 0 -53 142 -70 230 -7 37
                  -12 139 -12 235 0 151 3 182 27 277 14 59 40 142 56 185 29 74 99 199 107 190
                  2 -2 -5 -39 -16 -83z m2537 -3610 c-3 -3 -12 -4 -19 -1 -8 3 -5 6 6 6 11 1 17
                  -2 13 -5z m1856 -41 c-7 -2 -21 -2 -30 0 -10 3 -4 5 12 5 17 0 24 -2 18 -5z
                  m-1425 -20 c-10 -2 -26 -2 -35 0 -10 3 -2 5 17 5 19 0 27 -2 18 -5z m225 -20
                  c-7 -2 -21 -2 -30 0 -10 3 -4 5 12 5 17 0 24 -2 18 -5z m220 -10 c-7 -2 -19
                  -2 -25 0 -7 3 -2 5 12 5 14 0 19 -2 13 -5z m75 0 c-10 -2 -28 -2 -40 0 -13 2
                  -5 4 17 4 22 1 32 -1 23 -4z m125 0 c-13 -2 -35 -2 -50 0 -16 2 -5 4 22 4 28
                  0 40 -2 28 -4z m110 0 c-7 -2 -19 -2 -25 0 -7 3 -2 5 12 5 14 0 19 -2 13 -5z"/>
        <path d="M3085 6730 c-247 -18 -448 -89 -658 -233 -191 -130 -321 -298 -446
                  -576 -92 -205 -141 -453 -141 -717 0 -440 114 -787 348 -1057 229 -266 540
                  -410 987 -458 127 -14 482 -17 602 -6 l81 8 41 -87 c120 -255 306 -448 513
                  -531 175 -71 438 -83 608 -28 168 54 342 162 443 275 72 80 141 199 175 303
                  60 181 80 411 43 492 -35 78 -78 89 -207 52 -264 -76 -613 -134 -904 -152
                  -125 -7 -381 9 -489 32 -119 25 -178 28 -207 8 -21 -14 -62 -86 -78 -137 -7
                  -25 -76 -31 -285 -25 -467 13 -829 131 -1043 339 -374 363 -491 988 -288 1538
                  77 211 233 421 385 520 121 79 334 151 520 176 129 18 210 12 630 -41 433 -55
                  490 -59 835 -59 347 0 439 7 862 65 374 50 558 59 805 38 169 -14 293 -47 428
                  -114 132 -65 214 -125 321 -237 233 -243 337 -533 336 -938 -1 -286 -50 -499
                  -172 -745 -159 -322 -365 -571 -837 -1013 -141 -132 -175 -173 -158 -190 4 -4
                  39 -7 78 -6 56 0 87 6 137 28 197 85 444 277 626 489 306 355 542 875 585
                  1290 16 152 6 404 -21 541 -88 447 -343 819 -680 995 -183 95 -365 143 -615
                  161 -209 16 -369 8 -1035 -54 -399 -37 -643 -49 -840 -42 -232 9 -486 31 -700
                  61 -96 13 -220 27 -275 30 -55 3 -125 7 -155 9 -30 2 -100 0 -155 -4z m-1018
                  -1602 c-3 -7 -5 -2 -5 12 0 14 2 19 5 13 2 -7 2 -19 0 -25z m3187 -1546 c88
                  -30 114 -106 61 -176 -70 -92 -318 -207 -486 -225 -125 -13 -322 19 -336 55
                  -8 23 42 97 107 157 159 148 495 244 654 189z"/>
        <path d="M3203 5861 c-236 -60 -393 -359 -393 -746 -1 -106 4 -148 24 -228 58
                  -227 178 -378 339 -428 87 -27 148 -21 236 22 233 115 363 452 322 833 -28
                  258 -134 457 -279 524 -61 28 -185 39 -249 23z m334 -305 c79 -84 32 -258 -70
                  -258 -50 0 -76 18 -98 65 -37 83 -13 188 52 220 44 22 76 14 116 -27z"/>
        <path d="M5830 5838 c-86 -33 -176 -129 -233 -248 -53 -111 -72 -178 -88 -315
                  -32 -287 48 -576 203 -726 126 -122 331 -143 480 -47 232 147 345 567 247 919
                  -51 185 -161 339 -286 401 -60 29 -77 33 -167 35 -84 3 -110 -1 -156 -19z
                  m367 -234 c-3 -3 -12 -4 -19 -1 -8 3 -5 6 6 6 11 1 17 -2 13 -5z m57 -35 c38
                  -30 56 -71 56 -129 0 -114 -76 -178 -159 -135 -39 20 -65 78 -64 142 3 111 95
                  179 167 122z m-187 -131 c-3 -8 -6 -5 -6 6 -1 11 2 17 5 13 3 -3 4 -12 1 -19z
                  m255 -70 c-8 -8 -9 -4 -5 13 4 13 8 18 11 10 2 -7 -1 -18 -6 -23z"/>
    </g>
</svg>